<svg width="25" height="20" viewBox="0 0 25 20" fill="none" xmlns="http://www.w3.org/2000/svg">
<path d="M25 2.3741C24.0272 2.78177 23.0302 3.04556 22.0574 3.16547C23.1761 2.51799 23.9056 1.58273 24.3191 0.383693C23.2977 0.959233 22.2033 1.36691 21.0603 1.58273C20.0389 0.527578 18.7986 0 17.3152 0C15.9047 0 14.6887 0.503597 13.6916 1.48681C12.6946 2.47002 12.1839 3.66906 12.1839 5.05995C12.1839 5.44364 12.2325 5.82734 12.3054 6.21103C10.214 6.11511 8.24416 5.58753 6.42023 4.65228C4.5963 3.71703 3.03988 2.47002 1.75097 0.935252C1.28891 1.72662 1.04572 2.56595 1.04572 3.47722C1.04572 4.34053 1.24027 5.15588 1.6537 5.8753C2.06712 6.6187 2.62646 7.21823 3.30739 7.67386C2.48054 7.64988 1.70233 7.43405 0.997082 7.02638V7.09832C0.997082 8.32134 1.38619 9.3765 2.1644 10.3118C2.94261 11.223 3.91537 11.8225 5.107 12.0623C4.66926 12.1823 4.2072 12.2302 3.76946 12.2302C3.47763 12.2302 3.16148 12.2062 2.79669 12.1583C3.11284 13.1655 3.72082 14.0048 4.5963 14.6523C5.47179 15.2998 6.46887 15.6355 7.58755 15.6595C5.7393 17.0983 3.59922 17.8177 1.24027 17.8177C0.77821 17.8177 0.364786 17.7938 0 17.7458C2.38327 19.2566 5.00973 20 7.85506 20C9.67899 20 11.3813 19.7122 12.9864 19.1607C14.5914 18.5851 15.9533 17.8417 17.072 16.8825C18.1907 15.9233 19.1877 14.8201 19.9903 13.5971C20.8171 12.3501 21.4251 11.0552 21.8142 9.71223C22.2033 8.3693 22.4222 7.0024 22.4222 5.65947C22.4222 5.3717 22.4222 5.15587 22.3979 5.01199C23.4436 4.26858 24.2947 3.40528 25 2.3741Z" fill="black"/>
</svg>
